<svg width="29" height="28" viewBox="0 0 29 28" fill="none" xmlns="http://www.w3.org/2000/svg">
<g clip-path="url(#clip0_11_51)">
<path d="M14.3957 0C17.9227 0 21.002 1.16662 23.6332 3.49979L23.3666 3.87298C23.26 4.02263 22.9932 4.31047 22.5667 4.73752C22.1401 5.16419 21.6743 5.56993 21.1695 5.95399C20.6641 6.33821 19.9783 6.77561 19.1103 7.26649C18.2426 7.75738 17.3184 8.18798 16.3369 8.55785C14.7013 5.54132 12.952 2.82388 11.0887 0.40535C12.2125 0.135053 13.3148 0 14.3957 0ZM3.42993 5.31344C4.79524 3.59226 6.45905 2.26887 8.42203 1.34422C10.1856 3.69174 11.9208 6.38092 13.6277 9.41127C9.30388 10.5495 4.99435 11.1187 0.698973 11.1184C1.15436 8.97021 2.06461 7.03501 3.42993 5.31344ZM1.33879 19.0475C0.712886 17.4469 0.399994 15.7642 0.399994 13.9999C0.399994 13.8006 0.407301 13.6512 0.421349 13.5518C5.57032 13.5518 10.3565 12.8903 14.7799 11.5668C15.2351 12.4489 15.6119 13.2385 15.9106 13.9359C15.853 13.9643 15.7613 13.9961 15.6332 14.0318C15.5047 14.0674 15.4125 14.092 15.3551 14.1065L14.566 14.3838C14.0253 14.5832 13.3174 14.9247 12.443 15.4082C11.5685 15.8924 10.6404 16.4683 9.65894 17.1372C8.6775 17.8061 7.66423 18.6917 6.61897 19.7947C5.57357 20.8973 4.69528 22.0814 3.98411 23.3476C2.84626 22.0814 1.96455 20.6476 1.33879 19.0475ZM14.3957 28C11.0673 28 8.09464 26.9328 5.47751 24.7989L5.79762 25.0338C6.29537 23.9379 7.02771 22.885 7.99512 21.875C8.96236 20.865 9.89388 20.0501 10.7899 19.4311C11.686 18.8126 12.6603 18.2293 13.7128 17.6808C14.7653 17.1334 15.4832 16.7846 15.8677 16.6357C16.2517 16.4863 16.5575 16.3686 16.7851 16.283L16.8276 16.2616H16.8705C18.264 19.918 19.26 23.4611 19.8571 26.8899C18.0934 27.63 16.2733 27.9998 14.3957 28ZM26.1728 21.5655C25.1203 23.1947 23.8044 24.543 22.2261 25.6097C21.6424 22.3376 20.7327 19.0007 19.4949 15.6005C22.3253 15.159 25.2339 15.3657 28.2208 16.219C27.9078 18.154 27.2249 19.9365 26.1728 21.5655ZM28.1777 13.8078C28.0355 13.7796 27.8575 13.7473 27.6442 13.712C27.431 13.6766 27.1713 13.6337 26.8654 13.5838C26.5599 13.534 26.218 13.4879 25.8414 13.4452C25.4644 13.4025 25.0627 13.3635 24.6356 13.328C24.2091 13.2922 23.754 13.2641 23.2706 13.2425C22.7865 13.2212 22.296 13.2105 21.7982 13.2105C21.3007 13.2105 20.7775 13.2249 20.2302 13.2532C19.6828 13.2812 19.1532 13.3316 18.6413 13.4025C18.5984 13.3314 18.5452 13.2139 18.4811 13.0502C18.4173 12.8868 18.3705 12.762 18.343 12.6768C18.0724 12.0792 17.7595 11.4033 17.4036 10.6494C18.385 10.2508 19.3204 9.79217 20.2099 9.27274C21.0985 8.7533 21.809 8.29113 22.3427 7.88569C22.8762 7.47979 23.3811 7.04948 23.8575 6.59433C24.3342 6.1391 24.6431 5.82268 24.7858 5.64478C24.9282 5.46657 25.0632 5.29233 25.1911 5.12183L25.2124 5.10035C27.289 7.63288 28.3491 10.5494 28.3912 13.8504L28.1777 13.8078Z" fill="#111111"/>
</g>
<defs>
<clipPath id="clip0_11_51">
<rect width="28" height="28" fill="white" transform="translate(0.399994)"/>
</clipPath>
</defs>
</svg>
