<svg width="64" height="64" viewBox="0 0 64 64" fill="none" xmlns="http://www.w3.org/2000/svg">
<path fill-rule="evenodd" clip-rule="evenodd" d="M32 6.47621C17.9036 6.47621 6.47621 17.9036 6.47621 32C6.47621 46.0964 17.9036 57.5238 32 57.5238C46.0964 57.5238 57.5238 46.0964 57.5238 32C57.5238 17.9036 46.0964 6.47621 32 6.47621ZM4.19049 32C4.19049 16.6412 16.6412 4.19049 32 4.19049C47.3588 4.19049 59.8095 16.6412 59.8095 32C59.8095 47.3588 47.3588 59.8095 32 59.8095C16.6412 59.8095 4.19049 47.3588 4.19049 32Z" fill="#111111"/>
<path d="M40.5173 20.4608C40.9431 20.3607 41.4885 20.276 42.0302 20.4692C42.7302 20.7188 43.2812 21.2697 43.5308 21.9698C43.724 22.5115 43.6392 23.0569 43.5392 23.4827C43.4379 23.9137 43.2612 24.4438 43.0582 25.0527L39.0748 37.0028L39.0497 37.0786C38.9533 37.3703 38.8424 37.7057 38.643 37.9973C38.4696 38.2507 38.2507 38.4696 37.9973 38.643C37.7057 38.8424 37.3702 38.9533 37.0786 39.0497L37.0028 39.0748L25.0527 43.0582L25.0527 43.0582C24.4438 43.2612 23.9137 43.4379 23.4827 43.5392C23.0569 43.6392 22.5115 43.724 21.9698 43.5308C21.2697 43.2812 20.7188 42.7302 20.4692 42.0302C20.276 41.4885 20.3607 40.9431 20.4608 40.5173C20.5621 40.0862 20.7388 39.5561 20.9418 38.9471L20.9418 38.9471L24.9251 26.9972L24.9502 26.9214C25.0467 26.6297 25.1575 26.2943 25.357 26.0027C25.4624 25.8486 25.5943 25.7171 25.6621 25.6513C25.7454 25.5703 25.8247 25.5006 25.8696 25.462C25.8842 25.4494 25.9029 25.4333 25.9328 25.4099C25.9569 25.391 25.9929 25.3646 26.0182 25.3472C26.0394 25.3325 26.0568 25.321 26.0798 25.3066C26.3465 25.1407 26.6562 25.0381 26.9283 24.948L26.9284 24.948L26.9972 24.9251L38.9471 20.9418C39.556 20.7388 40.0862 20.5621 40.5173 20.4608Z" fill="#FF8A00"/>
</svg>
