<svg width="31" height="22" viewBox="0 0 31 22" fill="none" xmlns="http://www.w3.org/2000/svg">
<g clip-path="url(#clip0_11_53)">
<path d="M27.6862 2.58558L30.0522 0.464316V0H21.8559L16.0144 13.6261L9.36855 0H0.774353V0.464316L3.53819 3.58252C3.80752 3.81295 3.94837 4.14989 3.91254 4.48915V16.7432C3.99779 17.1843 3.84458 17.6382 3.51347 17.9589L0.399994 21.4952V21.9537H9.2277V21.4894L6.11422 17.9589C5.77693 17.6371 5.61754 17.1912 5.68549 16.7432V6.14379L13.4346 21.9595H14.3353L20.9983 6.14379V18.7428C20.9983 19.0752 20.9983 19.1435 20.7661 19.3612L18.3692 21.5345V22H29.9978V21.5357L27.6874 19.4156C27.4847 19.272 27.3797 19.0312 27.423 18.7972V3.20389C27.3797 2.96885 27.4835 2.728 27.6862 2.58558Z" fill="#111111"/>
</g>
<defs>
<clipPath id="clip0_11_53">
<rect width="29.6522" height="22" fill="white" transform="translate(0.399994)"/>
</clipPath>
</defs>
</svg>
