<svg width="144" height="19" viewBox="0 0 144 19" fill="none" xmlns="http://www.w3.org/2000/svg">
<path d="M7.296 18.336C5.648 18.336 4.256 17.968 3.12 17.232C1.984 16.496 1.176 15.48 0.696 14.184L3.528 12.528C4.184 14.24 5.472 15.096 7.392 15.096C8.288 15.096 8.96 14.936 9.408 14.616C9.856 14.296 10.08 13.864 10.08 13.32C10.08 12.728 9.816 12.272 9.288 11.952C8.76 11.616 7.816 11.256 6.456 10.872C4.984 10.424 3.824 9.904 2.976 9.312C1.92 8.528 1.392 7.376 1.392 5.856C1.392 4.32 1.928 3.112 3 2.232C4.072 1.32 5.376 0.863999 6.912 0.863999C8.256 0.863999 9.448 1.192 10.488 1.848C11.528 2.504 12.336 3.432 12.912 4.632L10.128 6.24C9.456 4.8 8.384 4.08 6.912 4.08C6.24 4.08 5.704 4.24 5.304 4.56C4.904 4.864 4.704 5.264 4.704 5.76C4.704 6.288 4.92 6.72 5.352 7.056C5.832 7.392 6.68 7.744 7.896 8.112L9.048 8.496C9.256 8.56 9.616 8.696 10.128 8.904C10.608 9.08 10.96 9.248 11.184 9.408C11.968 9.888 12.496 10.384 12.768 10.896C13.184 11.568 13.392 12.36 13.392 13.272C13.392 14.824 12.824 16.056 11.688 16.968C10.552 17.88 9.088 18.336 7.296 18.336ZM28.6802 5.664C30.0562 5.664 31.1522 6.112 31.9682 7.008C32.8002 7.904 33.2162 9.104 33.2162 10.608V18H30.1202V10.824C30.1202 10.104 29.9442 9.544 29.5922 9.144C29.2402 8.744 28.7442 8.544 28.1042 8.544C27.4002 8.544 26.8482 8.776 26.4482 9.24C26.0642 9.704 25.8722 10.376 25.8722 11.256V18H22.7762V10.824C22.7762 10.104 22.6002 9.544 22.2482 9.144C21.8962 8.744 21.4002 8.544 20.7602 8.544C20.0722 8.544 19.5202 8.784 19.1042 9.264C18.7042 9.728 18.5042 10.392 18.5042 11.256V18H15.4082V6H18.5042V7.272C19.2242 6.2 20.3362 5.664 21.8402 5.664C23.3282 5.664 24.4162 6.24 25.1042 7.392C25.8882 6.24 27.0802 5.664 28.6802 5.664ZM44.9657 7.416V6H48.0617V18H44.9657V16.584C44.0377 17.752 42.7337 18.336 41.0537 18.336C39.4537 18.336 38.0777 17.728 36.9257 16.512C35.7897 15.28 35.2217 13.776 35.2217 12C35.2217 10.24 35.7897 8.744 36.9257 7.512C38.0777 6.28 39.4537 5.664 41.0537 5.664C42.7337 5.664 44.0377 6.248 44.9657 7.416ZM39.2537 14.448C39.8777 15.072 40.6697 15.384 41.6297 15.384C42.5897 15.384 43.3817 15.072 44.0057 14.448C44.6457 13.808 44.9657 12.992 44.9657 12C44.9657 11.008 44.6457 10.2 44.0057 9.576C43.3817 8.936 42.5897 8.616 41.6297 8.616C40.6697 8.616 39.8777 8.936 39.2537 9.576C38.6297 10.2 38.3177 11.008 38.3177 12C38.3177 12.992 38.6297 13.808 39.2537 14.448ZM53.9651 6V8.064C54.2371 7.312 54.7011 6.744 55.3571 6.36C56.0131 5.96 56.7651 5.76 57.6131 5.76V9.216C56.6691 9.088 55.8211 9.28 55.0691 9.792C54.3331 10.288 53.9651 11.112 53.9651 12.264V18H50.8691V6H53.9651ZM66.6159 6V8.976H63.9039V13.968C63.9039 14.384 64.0079 14.688 64.2159 14.88C64.4239 15.072 64.7279 15.184 65.1279 15.216C65.5279 15.232 66.0239 15.224 66.6159 15.192V18C64.5199 18.24 63.0239 18.048 62.1279 17.424C61.2479 16.784 60.8079 15.632 60.8079 13.968V8.976H58.7199V6H60.8079V3.576L63.9039 2.64V6H66.6159Z" fill="#FF8A00"/>
<path d="M77.0983 18.336C74.5863 18.336 72.4983 17.496 70.8343 15.816C69.1863 14.152 68.3623 12.08 68.3623 9.6C68.3623 7.104 69.1863 5.032 70.8343 3.384C72.4983 1.704 74.5863 0.863999 77.0983 0.863999C78.6183 0.863999 80.0183 1.224 81.2983 1.944C82.5943 2.648 83.6023 3.608 84.3223 4.824L81.4663 6.48C81.0503 5.728 80.4583 5.144 79.6903 4.728C78.9223 4.296 78.0583 4.08 77.0983 4.08C75.4663 4.08 74.1463 4.592 73.1383 5.616C72.1463 6.656 71.6503 7.984 71.6503 9.6C71.6503 11.2 72.1463 12.52 73.1383 13.56C74.1463 14.584 75.4663 15.096 77.0983 15.096C78.0583 15.096 78.9223 14.888 79.6903 14.472C80.4743 14.04 81.0663 13.456 81.4663 12.72L84.3223 14.376C83.6023 15.592 82.5943 16.56 81.2983 17.28C80.0183 17.984 78.6183 18.336 77.0983 18.336ZM96.5072 16.512C95.2912 17.728 93.7872 18.336 91.9952 18.336C90.2032 18.336 88.6992 17.728 87.4832 16.512C86.2672 15.296 85.6592 13.792 85.6592 12C85.6592 10.224 86.2672 8.728 87.4832 7.512C88.7152 6.28 90.2192 5.664 91.9952 5.664C93.7712 5.664 95.2752 6.28 96.5072 7.512C97.7392 8.744 98.3552 10.24 98.3552 12C98.3552 13.776 97.7392 15.28 96.5072 16.512ZM89.6672 14.376C90.2912 15 91.0672 15.312 91.9952 15.312C92.9232 15.312 93.6992 15 94.3232 14.376C94.9472 13.752 95.2592 12.96 95.2592 12C95.2592 11.04 94.9472 10.248 94.3232 9.624C93.6992 9 92.9232 8.688 91.9952 8.688C91.0672 8.688 90.2912 9 89.6672 9.624C89.0592 10.264 88.7552 11.056 88.7552 12C88.7552 12.944 89.0592 13.736 89.6672 14.376ZM103.629 6V8.064C103.901 7.312 104.365 6.744 105.021 6.36C105.677 5.96 106.429 5.76 107.277 5.76V9.216C106.333 9.088 105.485 9.28 104.733 9.792C103.997 10.288 103.629 11.112 103.629 12.264V18H100.533V6H103.629ZM115.76 5.664C117.088 5.664 118.168 6.104 119 6.984C119.864 7.88 120.296 9.096 120.296 10.632V18H117.2V11.016C117.2 10.232 116.984 9.624 116.552 9.192C116.136 8.76 115.56 8.544 114.824 8.544C114.008 8.544 113.36 8.8 112.88 9.312C112.416 9.808 112.184 10.544 112.184 11.52V18H109.088V6H112.184V7.344C112.92 6.224 114.112 5.664 115.76 5.664ZM134.603 13.272H125.555C125.955 14.776 127.083 15.528 128.939 15.528C130.123 15.528 131.019 15.128 131.627 14.328L134.123 15.768C132.939 17.48 131.195 18.336 128.891 18.336C126.907 18.336 125.315 17.736 124.115 16.536C122.915 15.336 122.315 13.824 122.315 12C122.315 10.208 122.907 8.704 124.091 7.488C125.259 6.272 126.779 5.664 128.651 5.664C130.427 5.664 131.875 6.272 132.995 7.488C134.147 8.704 134.723 10.208 134.723 12C134.723 12.336 134.683 12.76 134.603 13.272ZM125.507 10.872H131.627C131.451 10.088 131.091 9.488 130.547 9.072C130.019 8.656 129.387 8.448 128.651 8.448C127.819 8.448 127.131 8.664 126.587 9.096C126.043 9.512 125.683 10.104 125.507 10.872ZM139.981 6V8.064C140.253 7.312 140.717 6.744 141.373 6.36C142.029 5.96 142.781 5.76 143.629 5.76V9.216C142.685 9.088 141.837 9.28 141.085 9.792C140.349 10.288 139.981 11.112 139.981 12.264V18H136.885V6H139.981Z" fill="#111111"/>
</svg>
