<svg width="39" height="24" viewBox="0 0 39 24" fill="none" xmlns="http://www.w3.org/2000/svg">
<g clip-path="url(#clip0_11_49)">
<path d="M16.1104 10.3956C16.1104 10.3956 19.6467 10.1377 19.6467 6.06258C19.6467 1.98789 16.7534 0 13.0881 0H6.34175H6.14363H1.02783V22.7704H6.14363H6.34175H13.0881C13.0881 22.7704 20.4503 22.9992 20.4503 16.0497C20.4507 16.0497 20.7717 10.3956 16.1104 10.3956ZM6.34175 4.04753H12.2202H13.0883C13.0883 4.04753 14.7279 4.04752 14.7279 6.41639C14.7279 8.78524 13.7633 9.12859 12.6702 9.12859H6.34175V4.04753ZM12.7771 18.724H6.34175V12.6384H13.0881C13.0881 12.6384 15.5316 12.6077 15.5316 15.7657C15.5316 18.399 13.7445 18.6976 12.7771 18.724ZM30.2698 5.79393C39.6508 5.79393 38.3369 15.6776 38.3369 15.6776H26.3278C26.3278 19.9082 30.4064 19.6403 30.4064 19.6403C34.2586 19.6403 34.1223 17.191 34.1223 17.191H38.2011C38.2011 23.6921 30.2701 23.2467 30.2701 23.2467C20.7538 23.2467 21.3647 14.5419 21.3647 14.5419C21.3647 14.5419 21.3568 5.79393 30.2698 5.79393ZM33.8953 12.6384C33.8953 12.6384 33.9411 9.12822 30.3603 9.12859C26.78 9.12859 26.2818 12.6384 26.2818 12.6384H33.8953ZM25.2839 1.31687H34.8467V4.5607H25.2839V1.31687Z" fill="#111111"/>
</g>
<defs>
<clipPath id="clip0_11_49">
<rect width="38.4" height="24" fill="white"/>
</clipPath>
</defs>
</svg>
